<svg width="130" height="130" viewBox="0 0 130 130" xmlns="http://www.w3.org/2000/svg"><g fill="#000" fill-rule="evenodd"><path d="M65 130c-35.899 0-65-29.101-65-65S29.101 0 65 0s65 29.101 65 65-29.101 65-65 65zm33.75-93.25C98.75 26.395 90.355 18 80 18c-10.354 0-18.75 8.395-18.75 18.75 0 8.16 5.224 15.083 12.5 17.66V83c0 6.903-5.597 12.5-12.5 12.5-6.904 0-12.5-5.597-12.5-12.5h12.5l-25-28.59V83c0 13.805 11.193 25 25 25 13.805 0 25-11.192 25-24.999v-28.59c7.278-2.578 12.5-9.5 12.5-17.661z"/><path d="M80 43a6.252 6.252 0 0 1-6.25-6.25c0-3.451 2.8-6.25 6.25-6.25s6.25 2.799 6.25 6.25S83.45 43 80 43z" fill-rule="nonzero"/></g></svg>